<svg width="1436" height="230" viewBox="0 0 1436 230" fill="none" xmlns="http://www.w3.org/2000/svg">
  <path d="M67.3077 5.70627C67.1516 5.35191 66.7884 5.12152 66.3862 5.12152H1.00104C0.285679 5.12152 -0.198308 5.81857 0.0795957 6.44864L47.7187 114.457C47.8749 114.811 48.238 115.041 48.6401 115.041H113.986C114.702 115.041 115.186 114.344 114.908 113.714L67.3077 5.70627Z" fill="#E1116F"/>
  <path d="M167.832 5.12152C167.429 5.12152 167.066 5.35228 166.91 5.70706L118.993 114.671L71.0767 223.635C70.7996 224.265 71.2836 224.961 71.9985 224.961C71.9985 224.961 136.75 224.961 137.153 224.961C137.442 224.961 137.791 224.659 137.965 224.489C138.04 224.416 138.096 224.327 138.138 224.232L185.991 115.412C185.991 115.412 233.631 7.0775 233.908 6.44757C234.185 5.81764 233.701 5.12152 232.986 5.12152H167.832Z" fill="#E1116F"/>
  <path d="M234.615 115C233.629 52.1651 285.891 -0.930169 357.217 0.0123592C428.542 -0.930169 480.475 52.1651 479.489 115C480.475 177.835 428.542 230.93 357.217 229.987C285.891 230.93 233.629 177.835 234.615 115ZM422.297 115C422.297 80.1266 397.974 50.5943 357.217 50.5943C316.13 50.5943 291.807 80.1266 291.807 115C291.807 149.873 316.13 179.406 357.217 179.406C397.974 179.406 422.297 149.873 422.297 115Z" fill="#E1116F"/>
  <path d="M510.871 137.306V7.03912C510.871 5.93455 511.767 5.03912 512.871 5.03912H564.749C565.853 5.03912 566.749 5.93455 566.749 7.03912V133.222C566.749 162.126 583.841 179.406 611.779 179.406C639.389 179.406 656.152 162.126 656.152 133.222V7.03912C656.152 5.93455 657.048 5.03912 658.152 5.03912H710.03C711.134 5.03912 712.03 5.93455 712.03 7.03912V137.306C712.03 188.831 676.86 229.987 611.779 229.987C547.356 229.987 510.871 188.831 510.871 137.306Z" fill="#E1116F"/>
  <path d="M743.378 115C742.392 52.1651 794.654 -0.930169 865.98 0.0123592C914.129 0.0123592 953.064 22.1799 973.104 57.8574C973.665 58.8558 973.25 60.1153 972.214 60.6038L925.247 82.7585C924.273 83.2182 923.112 82.8209 922.591 81.8778C911.867 62.4641 892.494 50.5943 865.98 50.5943C824.893 50.5943 800.57 80.755 800.57 115C800.57 149.245 824.893 179.406 865.98 179.406C892.494 179.406 911.867 167.536 922.591 148.122C923.112 147.179 924.273 146.782 925.247 147.241L972.214 169.396C973.25 169.885 973.665 171.144 973.104 172.142C953.064 207.82 914.129 229.987 865.98 229.987C794.654 230.93 742.392 177.835 743.378 115Z" fill="#E1116F"/>
  <path d="M976.655 224.961C975.211 224.961 974.243 223.478 974.823 222.157L1070.03 5.29264C1070.35 4.56592 1071.07 4.09662 1071.86 4.09662H1110.01C1110.8 4.09662 1111.52 4.56487 1111.84 5.29036L1207.37 222.154C1207.95 223.476 1206.98 224.961 1205.54 224.961H1150.42C1149.63 224.961 1148.91 224.488 1148.59 223.757L1134.65 191.658H1047.22L1033.6 223.742C1033.29 224.481 1032.56 224.961 1031.76 224.961H976.655ZM1064.64 147.36H1117.56L1090.93 84.8392L1064.64 147.36Z" fill="#E1116F"/>
  <path d="M1396.82 225.903C1396.23 225.903 1395.68 225.65 1395.3 225.21L1287.43 100.234V222.961C1287.43 224.065 1286.54 224.961 1285.43 224.961H1233.23C1232.12 224.961 1231.23 224.065 1231.23 222.961V6.09661C1231.23 4.99204 1232.12 4.09662 1233.23 4.09662H1270.41C1270.99 4.09662 1271.54 4.34966 1271.92 4.78983L1379.79 129.766L1380.12 7.03385C1380.12 5.93134 1381.02 5.03912 1382.12 5.03912H1434C1435.1 5.03912 1436 5.93455 1436 7.03912V223.903C1436 225.008 1435.1 225.903 1434 225.903H1396.82Z" fill="#E1116F"/>
</svg>
  